<svg width="699" height="657" viewBox="0 0 699 657" fill="none" xmlns="http://www.w3.org/2000/svg">
<g id="Group 22">
<path id="Path 3" fill-rule="evenodd" clip-rule="evenodd" d="M357.361 623.376C433.064 647.289 510.904 687.173 590.596 614.323C670.289 541.474 720.39 477.658 688.036 395.088C655.682 312.518 523.614 363.948 485.242 290.15C446.869 216.352 531.183 149.375 494.833 83.6951C458.484 18.0156 430.534 -24.0791 313.718 17.682C196.902 59.4432 207.673 165.702 118.84 227.926C30.0071 290.15 -66.1041 383.302 65.7937 549.518C197.691 715.735 281.659 599.463 357.361 623.376Z" stroke="#E4E4E4"/>
<path id="Path 3 Copy" fill-rule="evenodd" clip-rule="evenodd" d="M347.895 585.102C409.478 604.519 472.8 636.906 537.629 577.751C602.457 518.596 643.214 466.776 616.895 399.728C590.575 332.68 483.14 374.441 451.924 314.516C420.708 254.591 489.296 200.204 459.726 146.871C430.157 93.5381 407.42 59.3564 312.392 93.2673C217.364 127.178 226.125 213.462 153.861 263.989C81.5969 314.516 3.41175 390.157 110.709 525.128C218.006 660.099 286.312 565.684 347.895 585.102Z" stroke="#E4E4E4"/>
<path id="Path 3 Copy 2" fill-rule="evenodd" clip-rule="evenodd" d="M330.188 559.7C380.15 575.544 431.522 601.97 484.117 553.703C536.711 505.436 569.777 463.154 548.424 408.447C527.071 353.739 439.91 387.814 414.586 338.919C389.261 290.024 444.905 245.647 420.916 202.131C396.926 158.614 378.48 130.724 301.385 158.393C224.29 186.063 231.398 256.465 172.771 297.692C114.144 338.919 50.7132 400.638 137.762 510.766C224.811 620.894 280.227 543.857 330.188 559.7Z" stroke="#E4E4E4"/>
<path id="Path 3 Copy 5" fill-rule="evenodd" clip-rule="evenodd" d="M311.684 528.65C351.979 541.361 393.412 562.563 435.831 523.838C478.25 485.112 504.918 451.188 487.696 407.295C470.475 363.402 400.178 390.741 379.753 351.511C359.328 312.281 404.206 276.677 384.858 241.762C365.51 206.848 350.633 184.471 288.454 206.671C226.275 228.87 232.008 285.356 184.724 318.434C137.44 351.511 86.2818 401.029 156.488 489.388C226.695 577.747 271.389 515.938 311.684 528.65Z" stroke="#E4E4E4"/>
<path id="Path 3 Copy 4" fill-rule="evenodd" clip-rule="evenodd" d="M306.917 508.604C339.827 518.994 373.666 536.325 408.31 504.671C442.953 473.016 464.734 445.287 450.668 409.41C436.603 373.532 379.191 395.879 362.51 363.812C345.828 331.746 382.481 302.644 366.679 274.105C350.877 245.566 338.727 227.275 287.945 245.421C237.163 263.567 241.845 309.738 203.227 336.775C164.61 363.812 122.829 404.288 180.167 476.512C237.506 548.735 274.008 498.214 306.917 508.604Z" stroke="#E4E4E4"/>
<path id="Path 3 Copy 3" fill-rule="evenodd" clip-rule="evenodd" d="M297.775 494.111C324.493 502.549 351.966 516.622 380.093 490.917C408.22 465.212 425.903 442.694 414.483 413.56C403.064 384.425 356.452 402.572 342.909 376.532C329.365 350.493 359.123 326.86 346.294 303.684C333.465 280.509 323.6 265.656 282.371 280.392C241.142 295.127 244.943 332.621 213.591 354.576C182.238 376.532 148.316 409.401 194.868 468.05C241.421 526.7 271.056 485.673 297.775 494.111Z" stroke="#E4E4E4"/>
</g>
</svg>
