<svg width="699" height="656" viewBox="0 0 699 656" fill="none" xmlns="http://www.w3.org/2000/svg">
<path fill-rule="evenodd" clip-rule="evenodd" d="M341.639 33.5744C265.936 9.69817 188.096 -30.1254 108.404 42.6131C28.7114 115.352 -21.3904 179.07 10.9639 261.514C43.3182 343.958 175.386 292.607 213.758 366.292C252.131 439.977 167.817 506.852 204.167 572.431C240.516 638.01 268.466 680.041 385.282 638.343C502.098 596.646 491.327 490.549 580.16 428.42C668.993 366.292 765.104 273.282 633.206 107.319C501.309 -58.6439 417.341 57.4506 341.639 33.5744Z" stroke="#9E96C6"/>
<path fill-rule="evenodd" clip-rule="evenodd" d="M351.105 71.79C289.522 52.4021 226.2 20.0646 161.371 79.1296C96.5429 138.195 55.7857 189.935 82.1055 256.881C108.425 323.827 215.86 282.129 247.076 341.963C278.292 401.796 209.704 456.1 239.274 509.352C268.843 562.603 291.58 596.733 386.608 562.874C481.636 529.015 472.875 442.862 545.139 392.412C617.403 341.963 695.588 266.437 588.291 131.672C480.994 -3.09297 412.688 91.178 351.105 71.79Z" stroke="#9E96C6"/>
<path fill-rule="evenodd" clip-rule="evenodd" d="M368.812 97.1526C318.85 81.3332 267.478 54.9477 214.883 103.141C162.289 151.335 129.223 193.552 150.576 248.176C171.929 302.799 259.09 268.776 284.414 317.597C309.739 366.417 254.095 410.726 278.084 454.176C302.074 497.626 320.52 525.474 397.615 497.847C474.71 470.22 467.602 399.925 526.229 358.761C584.856 317.597 648.287 255.973 561.238 146.013C474.189 36.0526 418.773 112.972 368.812 97.1526Z" stroke="#9E96C6"/>
<path fill-rule="evenodd" clip-rule="evenodd" d="M387.316 128.156C347.021 115.464 305.588 94.2938 263.169 132.961C220.75 171.628 194.082 205.499 211.304 249.325C228.525 293.152 298.822 265.854 319.247 305.024C339.672 344.194 294.794 379.744 314.142 414.605C333.49 449.466 348.367 471.809 410.546 449.643C472.725 427.477 466.992 371.078 514.276 338.051C561.56 305.024 612.718 255.581 542.512 167.358C472.305 79.1338 427.611 140.848 387.316 128.156Z" stroke="#9E96C6"/>
<path fill-rule="evenodd" clip-rule="evenodd" d="M392.083 148.171C359.173 137.796 325.334 120.493 290.69 152.098C256.047 183.704 234.266 211.391 248.332 247.214C262.397 283.037 319.809 260.724 336.49 292.742C353.172 324.759 316.519 353.817 332.321 382.312C348.123 410.807 360.273 429.07 411.055 410.952C461.837 392.834 457.155 346.733 495.773 319.737C534.39 292.742 576.171 252.327 518.833 180.214C461.494 108.101 424.992 158.546 392.083 148.171Z" stroke="#9E96C6"/>
<path fill-rule="evenodd" clip-rule="evenodd" d="M401.225 162.642C374.507 154.217 347.034 140.165 318.907 165.831C290.78 191.497 273.097 213.98 284.517 243.07C295.936 272.161 342.548 254.041 356.091 280.041C369.635 306.041 339.877 329.638 352.706 352.778C365.535 375.917 375.4 390.748 416.629 376.035C457.858 361.322 454.057 323.886 485.409 301.963C516.762 280.041 550.684 247.223 504.132 188.663C457.579 130.103 427.944 171.067 401.225 162.642Z" stroke="#9E96C6"/>
</svg>
